<svg width="75" height="75" viewBox="0 0 75 75" fill="none" xmlns="http://www.w3.org/2000/svg">
<path d="M9.375 37.5C9.375 41.1934 10.1025 44.8507 11.5159 48.263C12.9293 51.6753 15.001 54.7757 17.6126 57.3874C20.2243 59.999 23.3247 62.0707 26.737 63.4841C30.1493 64.8975 33.8066 65.625 37.5 65.625C41.1934 65.625 44.8507 64.8975 48.263 63.4841C51.6753 62.0707 54.7757 59.999 57.3874 57.3874C59.999 54.7757 62.0707 51.6753 63.4841 48.263C64.8975 44.8507 65.625 41.1934 65.625 37.5C65.625 33.8066 64.8975 30.1493 63.4841 26.737C62.0707 23.3247 59.999 20.2243 57.3874 17.6126C54.7757 15.001 51.6753 12.9293 48.263 11.5159C44.8507 10.1025 41.1934 9.375 37.5 9.375C33.8066 9.375 30.1493 10.1025 26.737 11.5159C23.3247 12.9293 20.2243 15.001 17.6126 17.6126C15.001 20.2243 12.9293 23.3247 11.5159 26.737C10.1025 30.1493 9.375 33.8066 9.375 37.5Z" stroke="#FFFCFB" stroke-width="2" stroke-linecap="round" stroke-linejoin="round"/>
<path d="M31.25 51.5625L37.5 42.1875M37.5 42.1875L43.75 51.5625M37.5 42.1875V35.9375M37.5 35.9375L46.875 32.8125M37.5 35.9375L28.125 32.8125" stroke="#FFFCFB" stroke-width="2" stroke-linecap="round" stroke-linejoin="round"/>
<path d="M37.5 25C38.3629 25 39.0625 24.3004 39.0625 23.4375C39.0625 22.5746 38.3629 21.875 37.5 21.875C36.6371 21.875 35.9375 22.5746 35.9375 23.4375C35.9375 24.3004 36.6371 25 37.5 25Z" fill="#FFFCFB" stroke="#FFFCFB" stroke-width="2" stroke-linecap="round" stroke-linejoin="round"/>
</svg>
