<svg width="75" height="75" viewBox="0 0 75 75" fill="none" xmlns="http://www.w3.org/2000/svg">
<path d="M12.5 25V18.75C12.5 17.0924 13.1585 15.5027 14.3306 14.3306C15.5027 13.1585 17.0924 12.5 18.75 12.5H25" stroke="white" stroke-width="2" stroke-linecap="round" stroke-linejoin="round"/>
<path d="M12.5 50V56.25C12.5 57.9076 13.1585 59.4973 14.3306 60.6694C15.5027 61.8415 17.0924 62.5 18.75 62.5H25" stroke="white" stroke-width="2" stroke-linecap="round" stroke-linejoin="round"/>
<path d="M50 12.5H56.25C57.9076 12.5 59.4973 13.1585 60.6694 14.3306C61.8415 15.5027 62.5 17.0924 62.5 18.75V25" stroke="white" stroke-width="2" stroke-linecap="round" stroke-linejoin="round"/>
<path d="M50 62.5H56.25C57.9076 62.5 59.4973 61.8415 60.6694 60.6694C61.8415 59.4973 62.5 57.9076 62.5 56.25V50" stroke="white" stroke-width="2" stroke-linecap="round" stroke-linejoin="round"/>
<path d="M28.125 37.5C28.125 39.9864 29.1127 42.371 30.8709 44.1291C32.629 45.8873 35.0136 46.875 37.5 46.875C39.9864 46.875 42.371 45.8873 44.1291 44.1291C45.8873 42.371 46.875 39.9864 46.875 37.5C46.875 35.0136 45.8873 32.629 44.1291 30.8709C42.371 29.1127 39.9864 28.125 37.5 28.125C35.0136 28.125 32.629 29.1127 30.8709 30.8709C29.1127 32.629 28.125 35.0136 28.125 37.5Z" stroke="white" stroke-width="2" stroke-linecap="round" stroke-linejoin="round"/>
</svg>
