<svg width="75" height="75" viewBox="0 0 75 75" fill="none" xmlns="http://www.w3.org/2000/svg">
<path d="M28.125 15.625H21.875C20.2174 15.625 18.6277 16.2835 17.4556 17.4556C16.2835 18.6277 15.625 20.2174 15.625 21.875V59.375C15.625 61.0326 16.2835 62.6223 17.4556 63.7944C18.6277 64.9665 20.2174 65.625 21.875 65.625H53.125C54.7826 65.625 56.3723 64.9665 57.5444 63.7944C58.7165 62.6223 59.375 61.0326 59.375 59.375V21.875C59.375 20.2174 58.7165 18.6277 57.5444 17.4556C56.3723 16.2835 54.7826 15.625 53.125 15.625H46.875" stroke="white" stroke-width="2" stroke-linecap="round" stroke-linejoin="round"/>
<path d="M28.125 15.625C28.125 13.9674 28.7835 12.3777 29.9556 11.2056C31.1277 10.0335 32.7174 9.375 34.375 9.375H40.625C42.2826 9.375 43.8723 10.0335 45.0444 11.2056C46.2165 12.3777 46.875 13.9674 46.875 15.625C46.875 17.2826 46.2165 18.8723 45.0444 20.0444C43.8723 21.2165 42.2826 21.875 40.625 21.875H34.375C32.7174 21.875 31.1277 21.2165 29.9556 20.0444C28.7835 18.8723 28.125 17.2826 28.125 15.625Z" stroke="white" stroke-width="2" stroke-linecap="round" stroke-linejoin="round"/>
<path d="M31.25 43.75H43.75" stroke="white" stroke-width="2" stroke-linecap="round" stroke-linejoin="round"/>
<path d="M37.5 37.5V50" stroke="white" stroke-width="2" stroke-linecap="round" stroke-linejoin="round"/>
</svg>
