<svg width="75" height="75" viewBox="0 0 75 75" fill="none" xmlns="http://www.w3.org/2000/svg">
<path d="M43.75 9.375V21.875C43.75 22.7038 44.0792 23.4987 44.6653 24.0847C45.2513 24.6708 46.0462 25 46.875 25H59.375" stroke="white" stroke-width="2" stroke-linecap="round" stroke-linejoin="round"/>
<path d="M53.125 65.625H21.875C20.2174 65.625 18.6277 64.9665 17.4556 63.7944C16.2835 62.6223 15.625 61.0326 15.625 59.375V15.625C15.625 13.9674 16.2835 12.3777 17.4556 11.2056C18.6277 10.0335 20.2174 9.375 21.875 9.375H43.75L59.375 25V59.375C59.375 61.0326 58.7165 62.6223 57.5444 63.7944C56.3723 64.9665 54.7826 65.625 53.125 65.625Z" stroke="white" stroke-width="2" stroke-linecap="round" stroke-linejoin="round"/>
<path d="M28.125 53.125H46.875" stroke="white" stroke-width="2" stroke-linecap="round" stroke-linejoin="round"/>
<path d="M28.125 40.625H46.875" stroke="white" stroke-width="2" stroke-linecap="round" stroke-linejoin="round"/>
</svg>
