<svg width="75" height="75" viewBox="0 0 75 75" fill="none" xmlns="http://www.w3.org/2000/svg">
<path d="M12.5 31.25C12.5 32.9076 13.1585 34.4973 14.3306 35.6694C15.5027 36.8415 17.0924 37.5 18.75 37.5C20.4076 37.5 21.9973 36.8415 23.1694 35.6694C24.3415 34.4973 25 32.9076 25 31.25C25 29.5924 24.3415 28.0027 23.1694 26.8306C21.9973 25.6585 20.4076 25 18.75 25C17.0924 25 15.5027 25.6585 14.3306 26.8306C13.1585 28.0027 12.5 29.5924 12.5 31.25Z" stroke="white" stroke-width="2" stroke-linecap="round" stroke-linejoin="round"/>
<path d="M18.75 12.5V25" stroke="white" stroke-width="2" stroke-linecap="round" stroke-linejoin="round"/>
<path d="M18.75 37.5V62.5" stroke="white" stroke-width="2" stroke-linecap="round" stroke-linejoin="round"/>
<path d="M31.25 50C31.25 51.6576 31.9085 53.2473 33.0806 54.4194C34.2527 55.5915 35.8424 56.25 37.5 56.25C39.1576 56.25 40.7473 55.5915 41.9194 54.4194C43.0915 53.2473 43.75 51.6576 43.75 50C43.75 48.3424 43.0915 46.7527 41.9194 45.5806C40.7473 44.4085 39.1576 43.75 37.5 43.75C35.8424 43.75 34.2527 44.4085 33.0806 45.5806C31.9085 46.7527 31.25 48.3424 31.25 50Z" stroke="white" stroke-width="2" stroke-linecap="round" stroke-linejoin="round"/>
<path d="M37.5 12.5V43.75" stroke="white" stroke-width="2" stroke-linecap="round" stroke-linejoin="round"/>
<path d="M37.5 56.25V62.5" stroke="white" stroke-width="2" stroke-linecap="round" stroke-linejoin="round"/>
<path d="M50 21.875C50 23.5326 50.6585 25.1223 51.8306 26.2944C53.0027 27.4665 54.5924 28.125 56.25 28.125C57.9076 28.125 59.4973 27.4665 60.6694 26.2944C61.8415 25.1223 62.5 23.5326 62.5 21.875C62.5 20.2174 61.8415 18.6277 60.6694 17.4556C59.4973 16.2835 57.9076 15.625 56.25 15.625C54.5924 15.625 53.0027 16.2835 51.8306 17.4556C50.6585 18.6277 50 20.2174 50 21.875Z" stroke="white" stroke-width="2" stroke-linecap="round" stroke-linejoin="round"/>
<path d="M56.25 12.5V15.625" stroke="white" stroke-width="2" stroke-linecap="round" stroke-linejoin="round"/>
<path d="M56.25 28.125V62.5" stroke="white" stroke-width="2" stroke-linecap="round" stroke-linejoin="round"/>
</svg>
